<?xml version="1.0" encoding="UTF-8"?>
<svg width="131px" height="68px" viewBox="0 0 131 68" version="1.1" xmlns="http://www.w3.org/2000/svg" xmlns:xlink="http://www.w3.org/1999/xlink">
    <title>Group</title>
    <defs>
        <radialGradient cx="50%" cy="89.9944398%" fx="50%" fy="89.9944398%" r="89.3313248%" gradientTransform="translate(0.5, 0.8999), scale(1, 0.6324), rotate(-90), scale(1, 0.957), translate(-0.5, -0.8999)" id="radialGradient-1">
            <stop stop-color="#F48C06" offset="0%"></stop>
            <stop stop-color="#FAA307" offset="29.2662529%"></stop>
            <stop stop-color="#FFBA08" offset="60.7289053%"></stop>
            <stop stop-color="#FFE161" offset="100%"></stop>
        </radialGradient>
    </defs>
    <g id="Hi-Fi" stroke="none" stroke-width="1" fill="none" fill-rule="evenodd">
        <g id="KA-S" transform="translate(0, -1)">
            <g transform="translate(0, 35)">
                <path d="M6.58697351,23.7180174 L6.58697351,15.5994642 L7.03065567,15.5994642 L19.0669561,0.56932351 L26.7005645,0.56932351 L14.6528875,15.4286672 L13.3104646,15.4286672 L6.58697351,23.7180174 Z M0,33.4306765 L0,0.56932351 L6.87138515,0.56932351 L6.87138515,33.4306765 L0,33.4306765 Z M19.3286149,33.4306765 L8.79400782,17.8653717 L13.7655232,13.3563296 L27.5537994,33.4306765 L19.3286149,33.4306765 Z" id="Shape" fill="#FFE4C1" fill-rule="nonzero"></path>
                <path d="M28.668693,33.4306765 L40.1361702,0.56932351 L46.1998263,0.56932351 L46.1998263,6.94574682 L44.1065567,6.94574682 L35.8927486,33.4306765 L28.668693,33.4306765 Z M34.8347373,25.4601474 L36.5184542,20.3134628 L51.8311767,20.3134628 L53.5148936,25.4601474 L34.8347373,25.4601474 Z M52.4455059,33.4306765 L44.2430742,6.94574682 L44.2430742,0.56932351 L48.2134607,0.56932351 L59.6695614,33.4306765 L52.4455059,33.4306765 Z" id="Shape" fill="#FFE4C1" fill-rule="nonzero"></path>
                <path d="M117.769171,34 C115.167753,34 112.900044,33.6185533 110.966044,32.8556597 C109.032045,32.0927663 107.511391,30.9920741 106.404081,29.5535834 C105.296773,28.1150927 104.678651,26.3900425 104.549718,24.3784327 L104.526965,24.0026792 L111.01155,24.0026792 L111.057056,24.264568 C111.208742,25.1071668 111.59175,25.8377986 112.206079,26.4564635 C112.820409,27.0751284 113.618657,27.5552579 114.600825,27.896852 C115.582993,28.2384461 116.695991,28.4092431 117.939817,28.4092431 C119.213982,28.4092431 120.311811,28.2365484 121.233305,27.8911587 C122.154798,27.5457692 122.867723,27.0580487 123.37208,26.4279973 C123.876436,25.797946 124.128615,25.0654164 124.128615,24.2304086 L124.128615,24.2076356 C124.128615,23.0993525 123.692517,22.2301854 122.820321,21.6001339 C121.948126,20.9700827 120.491938,20.446305 118.451758,20.028801 L114.981937,19.3342264 C111.75102,18.6889931 109.316457,17.5901987 107.678246,16.0378433 C106.040034,14.4854878 105.220929,12.4719804 105.220929,9.99732083 L105.220929,9.97454789 C105.228514,7.97052914 105.768896,6.22270596 106.842076,4.73107837 C107.915255,3.23945077 109.394196,2.07803082 111.278897,1.24681849 C113.163598,0.415606162 115.315647,0 117.735042,0 C120.268201,0 122.456275,0.396628712 124.299262,1.18988614 C126.142249,1.98314355 127.581372,3.09901763 128.616631,4.53750838 C129.651889,5.97599911 130.222608,7.65550346 130.328788,9.57602143 L130.351541,9.99732083 L123.866956,9.99732083 L123.832827,9.72404555 C123.719062,8.85867381 123.394833,8.120451 122.860139,7.5093771 C122.325445,6.89830319 121.622,6.42576468 120.749804,6.09176155 C119.877609,5.75775843 118.872688,5.59075687 117.735042,5.59075687 C116.567057,5.59075687 115.56024,5.75965618 114.714589,6.09745479 C113.868939,6.4352534 113.220481,6.90209869 112.769214,7.49799063 C112.317947,8.09388256 112.092314,8.78276401 112.092314,9.56463496 L112.092314,9.5874079 C112.092314,10.6273722 112.532205,11.4642777 113.411984,12.0981246 C114.291764,12.7319714 115.675901,13.2424648 117.564395,13.6296048 L121.034216,14.3241795 C123.332262,14.7796383 125.215067,15.4096897 126.682631,16.2143336 C128.150196,17.0189775 129.236648,18.0323733 129.941988,19.2545211 C130.647329,20.4766689 131,21.9493191 131,23.6724716 L131,23.6952445 C131,25.797946 130.47289,27.621679 129.418672,29.1664434 C128.364452,30.7112079 126.849486,31.9029918 124.873773,32.741795 C122.898061,33.5805984 120.529859,34 117.769171,34 Z" id="Path" fill="#FFE4C1" fill-rule="nonzero"></path>
                <path d="M81.5411656,34 C76.495845,32.7168228 73.0557929,31.5118003 71.2210093,30.3849326 C61.9457799,24.688372 58.7586767,16.7572527 60.4215682,8.944216 C61.6946947,2.96247691 63.7008086,-0.0768157889 65.842946,-2.3879095 C69.1430557,-5.94830796 73.1091133,-8.09281687 76.8846188,-13.6337709 C81.0354372,-19.7255363 81.5703559,-26.5142794 78.4893749,-34 C82.1181483,-30.5496145 84.6026129,-27.3663112 85.9427688,-24.45009 C87.156988,-21.8079112 88.741224,-15.3221471 88.8933354,-13.0185874 C89.5953132,-2.3879095 89.9272343,3.08406424 92.5625936,0.719113034 C94.3194998,-0.857521104 94.9187625,-4.34677045 94.3603818,-9.74863499 C97.4958975,-5.37224761 99.5396054,-1.88299827 100.491506,0.719113034 C101.76168,4.19125818 103.091603,7.71862107 102.995038,12.0410084 C102.789922,21.2223513 96.1621719,28.5420152 83.111788,34 C86.7840078,31.0019004 89.2468936,28.7891816 90.5004456,27.3618436 C94.2507356,23.0916326 95.7923506,20.1317089 95.7923506,17.3846132 C95.7923506,15.471707 95.7923506,13.7517716 95.0564983,12.1183017 C94.320646,10.4848318 92.6808033,8.81840708 89.5140985,8.59405495 C85.7565634,8.32784416 83.2954824,10.4716058 82.1308552,15.0253398 C80.7819844,10.5043759 78.4775261,8.36061425 75.2174804,8.59405495 C70.3274118,8.944216 68.4335783,12.0169865 68.4335783,16.9032296 C68.4335783,19.8009119 69.8744134,23.2010997 74.6195516,28.1535345 C75.8014005,29.3870137 78.1086051,31.3358355 81.5411656,34 Z" id="Path" fill="url(#radialGradient-1)"></path>
            </g>
        </g>
    </g>
</svg>