<?xml version="1.0" encoding="UTF-8"?>
<svg width="260px" height="393px" viewBox="0 0 260 393" version="1.1" xmlns="http://www.w3.org/2000/svg" xmlns:xlink="http://www.w3.org/1999/xlink">
    <title>Group</title>
    <defs>
        <radialGradient cx="50%" cy="89.9944398%" fx="50%" fy="89.9944398%" r="85.3851842%" gradientTransform="translate(0.5, 0.8999), scale(1, 0.6616), rotate(-90), scale(1, 1.0012), translate(-0.5, -0.8999)" id="radialGradient-1">
            <stop stop-color="#F48C06" offset="0%"></stop>
            <stop stop-color="#FAA307" offset="29.2662529%"></stop>
            <stop stop-color="#FFBA08" offset="60.7289053%"></stop>
            <stop stop-color="#FFE161" offset="100%"></stop>
        </radialGradient>
    </defs>
    <g id="Style-Guide" stroke="none" stroke-width="1" fill="none" fill-rule="evenodd">
        <g id="Group">
            <path d="M130.248908,393 C99.7423187,385.58399 78.9420035,378.619669 67.8479629,372.107037 C11.7651808,339.184268 -7.50567605,293.347064 2.54901725,248.192307 C10.246991,213.621374 22.3769821,196.05605 35.329441,182.699288 C55.2835927,162.122279 79.264406,149.728279 102.093044,117.704824 C127.191015,82.4980033 130.425408,43.263062 111.79622,0 C133.737641,19.9411984 148.759985,38.3388191 156.863253,55.192862 C164.205043,70.4631012 173.784145,107.947003 174.703889,121.260223 C178.948406,182.699288 180.95537,214.324077 196.890101,200.65605 C207.513254,191.544032 211.136704,171.378224 207.760448,140.158624 C226.71938,165.451569 239.076684,185.617378 244.83236,200.65605 C252.512486,220.723007 260.553877,241.109089 259.969998,266.089945 C258.72976,319.152707 218.654993,361.456058 139.745695,393 C161.949814,375.672748 176.841682,362.884535 184.421299,354.635361 C207.097471,329.956053 216.418864,312.849435 216.418864,296.972838 C216.418864,285.917366 216.418864,275.977151 211.969524,266.536656 C207.520185,257.09616 197.604857,247.465206 178.45734,246.168582 C155.73736,244.630041 140.856405,257.019722 133.814473,283.337626 C125.65851,257.209113 111.724577,244.819432 92.0126722,246.168582 C62.4448154,248.192307 50.9937294,265.951113 50.9937294,294.190724 C50.9937294,310.937623 59.7057553,330.588709 88.3972889,359.210869 C95.5433517,366.339653 109.493892,377.602697 130.248908,393 Z" id="Path" fill="url(#radialGradient-1)"></path>
            <path d="M137.248908,393 C165.784219,375.672748 183.841682,362.884535 191.421299,354.635361 C214.097471,329.956053 223.418864,312.849435 223.418864,296.972838 C223.418864,285.917366 223.418864,275.977151 218.969524,266.536656 C214.520185,257.09616 204.604857,247.465206 185.45734,246.168582 C162.73736,244.630041 147.856405,257.019722 140.814473,283.337626 C132.65851,257.209113 118.724577,244.819432 99.0126722,246.168582 C69.4448154,248.192307 57.9937294,265.951113 57.9937294,294.190724 C57.9937294,310.937623 66.7057553,330.588709 95.3972889,359.210869 C102.543352,366.339653 116.493892,377.602697 137.248908,393 Z" id="Path" fill="#6A040F"></path>
        </g>
    </g>
</svg>