<?xml version="1.0" encoding="UTF-8"?>
<svg width="359px" height="542px" viewBox="0 0 359 542" version="1.1" xmlns="http://www.w3.org/2000/svg" xmlns:xlink="http://www.w3.org/1999/xlink">
    <title>Path</title>
    <defs>
        <radialGradient cx="50%" cy="89.9944398%" fx="50%" fy="89.9944398%" r="85.1849418%" gradientTransform="translate(0.5, 0.8999), scale(1, 0.6631), rotate(-90), scale(1, 1.0012), translate(-0.5, -0.8999)" id="radialGradient-1">
            <stop stop-color="#F48C06" offset="0%"></stop>
            <stop stop-color="#FAA307" offset="29.2662529%"></stop>
            <stop stop-color="#FFBA08" offset="60.7289053%"></stop>
            <stop stop-color="#FFE161" offset="100%"></stop>
        </radialGradient>
    </defs>
    <g id="Hi-Fi" stroke="none" stroke-width="1" fill="none" fill-rule="evenodd">
        <path d="M179.72426,540 C137.863888,529.847804 109.322222,520.313949 94.0992595,511.398438 C17.1438837,466.32859 -9.29909893,403.579441 4.49769703,341.764532 C15.0606621,294.43842 31.7051291,270.392252 49.4781658,252.107422 C76.8587484,223.938387 109.764614,206.971537 141.089494,163.132813 C175.528296,114.936198 179.966447,61.2252604 154.403947,2 C184.51141,29.2986381 205.124691,54.4841849 216.243791,77.5566406 C226.31801,98.4609375 239.462211,149.774777 240.72426,168 C246.548478,252.107422 249.302385,295.400391 271.167619,276.689453 C285.744442,264.215495 290.716447,236.609375 286.083635,193.871094 C312.098602,228.496041 329.054982,256.102161 336.952775,276.689453 C347.49125,304.160249 358.525443,332.067914 357.72426,366.265625 C356.022437,438.90625 301.032853,496.817708 192.75551,540 C223.223441,516.279741 243.657686,498.773231 254.058244,487.480469 C285.173914,453.695564 297.964494,430.277344 297.964494,408.542969 C297.964494,393.408506 297.964494,379.800781 291.859223,366.877152 C285.753952,353.953522 272.14839,340.769162 245.87465,338.994141 C214.698869,336.887944 194.279598,353.848881 184.616838,389.876953 C173.425431,354.10815 154.30564,337.147213 127.257463,338.994141 C86.685197,341.764532 70.9723064,366.07557 70.9723064,404.734375 C70.9723064,427.660156 82.9267281,454.561642 122.296525,493.744141 C132.102172,503.503138 151.24475,518.921758 179.72426,540 Z" id="Path" stroke="#979797" fill="url(#radialGradient-1)"></path>
    </g>
</svg>