<?xml version="1.0" encoding="UTF-8"?>
<svg width="292px" height="426px" viewBox="0 0 292 426" version="1.1" xmlns="http://www.w3.org/2000/svg" xmlns:xlink="http://www.w3.org/1999/xlink">
    <title>Group</title>
    <defs>
        <linearGradient x1="50%" y1="0%" x2="50%" y2="100%" id="linearGradient-1">
            <stop stop-color="#EA6604" offset="0%"></stop>
            <stop stop-color="#000000" offset="100%"></stop>
        </linearGradient>
        <rect id="path-2" x="4" y="14" width="275" height="409" rx="16"></rect>
        <filter x="-3.5%" y="-2.6%" width="110.5%" height="107.1%" filterUnits="objectBoundingBox" id="filter-3">
            <feOffset dx="5" dy="4" in="SourceAlpha" result="shadowOffsetOuter1"></feOffset>
            <feGaussianBlur stdDeviation="4" in="shadowOffsetOuter1" result="shadowBlurOuter1"></feGaussianBlur>
            <feComposite in="shadowBlurOuter1" in2="SourceAlpha" operator="out" result="shadowBlurOuter1"></feComposite>
            <feColorMatrix values="0 0 0 0 0   0 0 0 0 0   0 0 0 0 0  0 0 0 0.25 0" type="matrix" in="shadowBlurOuter1"></feColorMatrix>
        </filter>
        <radialGradient cx="50%" cy="4.13836024%" fx="50%" fy="4.13836024%" r="132.959172%" gradientTransform="translate(0.5, 0.0414), scale(1, 0.6579), rotate(90), scale(1, 0.8382), translate(-0.5, -0.0414)" id="radialGradient-4">
            <stop stop-color="#F48C06" offset="0%"></stop>
            <stop stop-color="#D04D06" offset="23.717761%"></stop>
            <stop stop-color="#B32307" offset="43.0921929%"></stop>
            <stop stop-color="#9D0208" offset="59.6127618%"></stop>
            <stop stop-color="#9D0208" offset="76.9462837%"></stop>
            <stop stop-color="#6D0404" offset="88.9927687%"></stop>
            <stop stop-color="#03071E" offset="100%"></stop>
        </radialGradient>
    </defs>
    <g id="Hi-Fi" stroke="none" stroke-width="1" fill="none" fill-rule="evenodd">
        <g id="Group" transform="translate(3.6228, 4.2524)">
            <g id="Cards-deck" transform="translate(-4, -14)">
                <g id="Rectangle">
                    <use fill="black" fill-opacity="1" filter="url(#filter-3)" xlink:href="#path-2"></use>
                    <rect stroke="url(#linearGradient-1)" stroke-width="6" stroke-linejoin="square" fill="#FFFFFF" fill-rule="evenodd" x="7" y="17" width="269" height="403" rx="16"></rect>
                </g>
                <path d="M29.5239335,71 C26.5906076,70.2829304 24.5905773,69.6095355 23.5238426,68.9798153 C18.1312674,65.7964432 16.2783004,61.3643471 17.2450978,56.9982384 C17.9852876,53.6555018 19.1516329,51.9570735 20.3970616,50.66558 C22.3157301,48.6759456 24.6215775,47.4775435 26.8166388,44.381128 C29.2299053,40.9769062 29.5409046,37.1831968 27.7496365,33 C29.8593885,34.9281566 31.3038447,36.7070614 32.0830051,38.3367144 C32.7889465,39.8132261 33.7100139,43.4376237 33.7984508,44.7249071 C34.2065775,50.66558 34.3995548,53.7234477 35.9317405,52.4018573 C36.9531975,51.520797 37.3016061,49.5709224 36.9769662,46.5522334 C38.7999404,48.9978616 39.9881427,50.9477363 40.5415731,52.4018573 C41.2800467,54.3421737 42.0532574,56.3133471 41.9971152,58.7287988 C41.8778616,63.8595493 38.0245185,67.9499497 30.437086,71 C32.5720975,69.3245914 34.0040079,68.0880721 34.7328172,67.290442 C36.9132183,64.9041476 37.8095061,63.2500726 37.8095061,61.7149309 C37.8095061,60.6459539 37.8095061,59.6848135 37.381685,58.7719921 C36.9538639,57.8591707 36.0004671,56.9279334 34.1593596,56.8025601 C31.9747462,56.6537953 30.5438851,57.8517797 29.8667763,60.3965134 C29.0825491,57.8700924 27.7427478,56.672108 25.8473723,56.8025601 C23.0043092,56.9982384 21.9032432,58.7153748 21.9032432,61.4459224 C21.9032432,63.0652155 22.740938,64.9653204 25.4997393,67.7328575 C26.1868607,68.4221547 27.5282588,69.5112022 29.5239335,71 Z" id="Path-Copy-2" fill="url(#radialGradient-4)"></path>
                <path d="M247.523934,409 C244.590608,408.28293 242.590577,407.609535 241.523843,406.979815 C236.131267,403.796443 234.2783,399.364347 235.245098,394.998238 C235.985288,391.655502 237.151633,389.957074 238.397062,388.66558 C240.31573,386.675946 242.621577,385.477544 244.816639,382.381128 C247.229905,378.976906 247.540905,375.183197 245.749637,371 C247.859389,372.928157 249.303845,374.707061 250.083005,376.336714 C250.788946,377.813226 251.710014,381.437624 251.798451,382.724907 C252.206577,388.66558 252.399555,391.723448 253.93174,390.401857 C254.953198,389.520797 255.301606,387.570922 254.976966,384.552233 C256.79994,386.997862 257.988143,388.947736 258.541573,390.401857 C259.280047,392.342174 260.053257,394.313347 259.997115,396.728799 C259.877862,401.859549 256.024519,405.94995 248.437086,409 C250.572098,407.324591 252.004008,406.088072 252.732817,405.290442 C254.913218,402.904148 255.809506,401.250073 255.809506,399.714931 C255.809506,398.645954 255.809506,397.684814 255.381685,396.771992 C254.953864,395.859171 254.000467,394.927933 252.15936,394.80256 C249.974746,394.653795 248.543885,395.85178 247.866776,398.396513 C247.082549,395.870092 245.742748,394.672108 243.847372,394.80256 C241.004309,394.998238 239.903243,396.715375 239.903243,399.445922 C239.903243,401.065215 240.740938,402.96532 243.499739,405.732858 C244.186861,406.422155 245.528259,407.511202 247.523934,409 Z" id="Path-Copy" fill="url(#radialGradient-4)"></path>
            </g>
        </g>
    </g>
</svg>