<?xml version="1.0" encoding="UTF-8"?>
<svg width="262px" height="396px" viewBox="0 0 262 396" version="1.1" xmlns="http://www.w3.org/2000/svg" xmlns:xlink="http://www.w3.org/1999/xlink">
    <title>Path Copy 10</title>
    <g id="Style-Guide" stroke="none" stroke-width="1" fill="none" fill-rule="evenodd">
        <g id="Graphic" transform="translate(-978, -452)" fill="#9D0208" stroke="#979797">
            <path d="M1109.24891,847 C1078.74232,839.58399 1057.942,832.619669 1046.84796,826.107037 C990.765181,793.184268 971.494324,747.347064 981.549017,702.192307 C989.246991,667.621374 1001.37698,650.05605 1014.32944,636.699288 C1034.28359,616.122279 1058.26441,603.728279 1081.09304,571.704824 C1106.19102,536.498003 1109.42541,497.263062 1090.79622,454 C1112.73764,473.941198 1127.75999,492.338819 1135.86325,509.192862 C1143.20504,524.463101 1152.78415,561.947003 1153.70389,575.260223 C1157.94841,636.699288 1159.95537,668.324077 1175.8901,654.65605 C1186.51325,645.544032 1190.1367,625.378224 1186.76045,594.158624 C1205.71938,619.451569 1218.07668,639.617378 1223.83236,654.65605 C1231.51249,674.723007 1239.55388,695.109089 1238.97,720.089945 C1237.72976,773.152707 1197.65499,815.456058 1118.74569,847 C1140.94981,829.672748 1155.84168,816.884535 1163.4213,808.635361 C1186.09747,783.956053 1195.41886,766.849435 1195.41886,750.972838 C1195.41886,739.917366 1195.41886,729.977151 1190.96952,720.536656 C1186.52018,711.09616 1176.60486,701.465206 1157.45734,700.168582 C1134.73736,698.630041 1119.8564,711.019722 1112.81447,737.337626 C1104.65851,711.209113 1090.72458,698.819432 1071.01267,700.168582 C1041.44482,702.192307 1029.99373,719.951113 1029.99373,748.190724 C1029.99373,764.937623 1038.70576,784.588709 1067.39729,813.210869 C1074.54335,820.339653 1088.49389,831.602697 1109.24891,847 Z" id="Path-Copy-10"></path>
        </g>
    </g>
</svg>